<mxfile host="app.diagrams.net" agent="Mozilla/5.0 (Windows NT 10.0; Win64; x64) AppleWebKit/537.36 (KHTML, like Gecko) Chrome/134.0.0.0 Safari/537.36" version="26.1.3">
  <diagram name="Página-1" id="lKMc8lMIKaLB3zxhXYHe">
    <mxGraphModel dx="954" dy="638" grid="1" gridSize="10" guides="1" tooltips="1" connect="1" arrows="1" fold="1" page="1" pageScale="1" pageWidth="827" pageHeight="1169" math="0" shadow="0">
      <root>
        <mxCell id="0" />
        <mxCell id="1" parent="0" />
        <mxCell id="aRab3Xviz1Wsm9WuLL6K-3" value="" style="edgeStyle=orthogonalEdgeStyle;rounded=0;orthogonalLoop=1;jettySize=auto;html=1;entryX=0.5;entryY=0;entryDx=0;entryDy=0;" edge="1" parent="1" source="aRab3Xviz1Wsm9WuLL6K-1" target="aRab3Xviz1Wsm9WuLL6K-4">
          <mxGeometry relative="1" as="geometry">
            <mxPoint x="414" y="300" as="targetPoint" />
          </mxGeometry>
        </mxCell>
        <mxCell id="aRab3Xviz1Wsm9WuLL6K-1" value="&lt;font style=&quot;font-size: 16px;&quot;&gt;Início&lt;/font&gt;" style="rhombus;whiteSpace=wrap;html=1;" vertex="1" parent="1">
          <mxGeometry x="350.5" y="170" width="127" height="80" as="geometry" />
        </mxCell>
        <mxCell id="aRab3Xviz1Wsm9WuLL6K-7" value="" style="edgeStyle=orthogonalEdgeStyle;rounded=0;orthogonalLoop=1;jettySize=auto;html=1;" edge="1" parent="1" source="aRab3Xviz1Wsm9WuLL6K-4" target="aRab3Xviz1Wsm9WuLL6K-6">
          <mxGeometry relative="1" as="geometry" />
        </mxCell>
        <mxCell id="aRab3Xviz1Wsm9WuLL6K-4" value="&lt;span style=&quot;font-size: 17px;&quot;&gt;dolar, reais&lt;/span&gt;" style="shape=parallelogram;perimeter=parallelogramPerimeter;whiteSpace=wrap;html=1;fixedSize=1;" vertex="1" parent="1">
          <mxGeometry x="354" y="330" width="120" height="60" as="geometry" />
        </mxCell>
        <mxCell id="aRab3Xviz1Wsm9WuLL6K-9" style="edgeStyle=orthogonalEdgeStyle;rounded=0;orthogonalLoop=1;jettySize=auto;html=1;exitX=0.5;exitY=1;exitDx=0;exitDy=0;entryX=0.5;entryY=0;entryDx=0;entryDy=0;" edge="1" parent="1" source="aRab3Xviz1Wsm9WuLL6K-6" target="aRab3Xviz1Wsm9WuLL6K-8">
          <mxGeometry relative="1" as="geometry" />
        </mxCell>
        <mxCell id="aRab3Xviz1Wsm9WuLL6K-6" value="&lt;div style=&quot;font-family: monospace, Consolas, &amp;quot;Courier New&amp;quot;, monospace; font-size: 14px; line-height: 19px; white-space: pre;&quot;&gt;&lt;font style=&quot;color: rgb(0, 0, 0);&quot;&gt;valordolar = reais / dolar&lt;/font&gt;&lt;/div&gt;" style="whiteSpace=wrap;html=1;" vertex="1" parent="1">
          <mxGeometry x="289" y="480" width="250" height="35" as="geometry" />
        </mxCell>
        <mxCell id="aRab3Xviz1Wsm9WuLL6K-11" value="" style="edgeStyle=orthogonalEdgeStyle;rounded=0;orthogonalLoop=1;jettySize=auto;html=1;" edge="1" parent="1" target="aRab3Xviz1Wsm9WuLL6K-10">
          <mxGeometry relative="1" as="geometry">
            <mxPoint x="414" y="650" as="sourcePoint" />
          </mxGeometry>
        </mxCell>
        <mxCell id="aRab3Xviz1Wsm9WuLL6K-8" value="&lt;font style=&quot;font-size: 16px;&quot;&gt;valordolar&lt;/font&gt;" style="shape=document;whiteSpace=wrap;html=1;boundedLbl=1;" vertex="1" parent="1">
          <mxGeometry x="354" y="585" width="120" height="80" as="geometry" />
        </mxCell>
        <mxCell id="aRab3Xviz1Wsm9WuLL6K-10" value="&lt;font style=&quot;font-size: 17px;&quot;&gt;Fim&lt;/font&gt;" style="ellipse;whiteSpace=wrap;html=1;" vertex="1" parent="1">
          <mxGeometry x="332" y="720" width="164" height="80" as="geometry" />
        </mxCell>
      </root>
    </mxGraphModel>
  </diagram>
</mxfile>
